<svg id="Icon" xmlns="http://www.w3.org/2000/svg" xmlns:xlink="http://www.w3.org/1999/xlink" width="20" height="20" viewBox="0 0 20 20">
  <defs>
    <clipPath id="clip-path">
      <path id="Hide" d="M.292.156A.75.75,0,0,1,1.342.29l0,0,.02.024c.02.023.052.061.1.11a5.84,5.84,0,0,0,.425.416A8.1,8.1,0,0,0,3.672,2.035,9.648,9.648,0,0,0,8,3a9.648,9.648,0,0,0,4.328-.965A8.1,8.1,0,0,0,14.113.843a5.858,5.858,0,0,0,.425-.416c.045-.049.077-.087.1-.11l.02-.024,0,0a.75.75,0,0,1,1.187.917v0l0,0,0,.005-.012.015-.04.048c-.033.04-.08.094-.141.161a7.317,7.317,0,0,1-.535.524,9.391,9.391,0,0,1-1.449,1.053l1.221,2.392a.75.75,0,0,1-1.336.682L12.317,3.684a11.141,11.141,0,0,1-3.567.794V6.75a.75.75,0,0,1-1.5,0V4.478a11.142,11.142,0,0,1-3.567-.794L2.453,6.091a.75.75,0,0,1-1.336-.682L2.339,3.017A9.389,9.389,0,0,1,.89,1.964,7.331,7.331,0,0,1,.355,1.44C.294,1.374.247,1.319.214,1.28l-.04-.048L.162,1.216l0-.005,0,0h0A.751.751,0,0,1,.292.156Z" fill="none"/>
    </clipPath>
  </defs>
  <g id="Group_81" data-name="Group 81" transform="translate(2 6.2)">
    <path id="Hide-2" data-name="Hide" d="M.292.156A.75.75,0,0,1,1.342.29l0,0,.02.024c.02.023.052.061.1.11a5.84,5.84,0,0,0,.425.416A8.1,8.1,0,0,0,3.672,2.035,9.648,9.648,0,0,0,8,3a9.648,9.648,0,0,0,4.328-.965A8.1,8.1,0,0,0,14.113.843a5.858,5.858,0,0,0,.425-.416c.045-.049.077-.087.1-.11l.02-.024,0,0a.75.75,0,0,1,1.187.917v0l0,0,0,.005-.012.015-.04.048c-.033.04-.08.094-.141.161a7.317,7.317,0,0,1-.535.524,9.391,9.391,0,0,1-1.449,1.053l1.221,2.392a.75.75,0,0,1-1.336.682L12.317,3.684a11.141,11.141,0,0,1-3.567.794V6.75a.75.75,0,0,1-1.5,0V4.478a11.142,11.142,0,0,1-3.567-.794L2.453,6.091a.75.75,0,0,1-1.336-.682L2.339,3.017A9.389,9.389,0,0,1,.89,1.964,7.331,7.331,0,0,1,.355,1.44C.294,1.374.247,1.319.214,1.28l-.04-.048L.162,1.216l0-.005,0,0h0A.751.751,0,0,1,.292.156Z" fill="none"/>
    <g id="Mask_Group_370" data-name="Mask Group 370" clip-path="url(#clip-path)">
      <g id="Color" transform="translate(-2 -6.2)">
        <rect id="Rectangle" width="20" height="20" fill="#3f434a"/>
      </g>
    </g>
  </g>
</svg>
