<svg id="Icons_Basic_More" data-name="Icons / Basic / More" xmlns="http://www.w3.org/2000/svg" xmlns:xlink="http://www.w3.org/1999/xlink" width="26" height="26" viewBox="0 0 26 26">
  <defs>
    <clipPath id="clip-path">
      <path id="Show" d="M10.4,15.6a10.759,10.759,0,0,1-7.673-3.721A17.923,17.923,0,0,1,.784,9.394c-.229-.352-.4-.643-.5-.825-.051-.089-.09-.162-.12-.217l-.011-.02-.011-.02L.117,8.264l-.011-.02,0-.009.332-.166.112-.056L.1,8.234a.976.976,0,0,1,0-.869l0-.009.011-.02.035-.067c.03-.057.074-.138.131-.239.1-.177.267-.464.5-.825A17.859,17.859,0,0,1,2.726,3.722,10.755,10.755,0,0,1,10.4,0a10.755,10.755,0,0,1,7.673,3.722,17.678,17.678,0,0,1,1.942,2.484c.183.284.351.561.5.825.057.1.1.181.131.239l.035.067.011.02,0,.009a.976.976,0,0,1,0,.87l-.058-.029.057.03,0,.009-.01.02-.025.048-.011.02-.011.02c-.03.055-.07.129-.12.218-.154.271-.322.549-.5.825a17.748,17.748,0,0,1-1.942,2.485A10.759,10.759,0,0,1,10.4,15.6Zm0-13.657A8.6,8.6,0,0,0,4.149,5.05,15.947,15.947,0,0,0,2.422,7.26c-.115.177-.224.353-.333.541.1.173.213.355.333.539a15.893,15.893,0,0,0,1.727,2.21,8.591,8.591,0,0,0,6.25,3.108,8.591,8.591,0,0,0,6.25-3.108,15.743,15.743,0,0,0,1.727-2.21c.118-.181.23-.362.333-.539-.107-.183-.216-.36-.333-.541a15.806,15.806,0,0,0-1.727-2.21A8.6,8.6,0,0,0,10.4,1.942Zm0,9.39A3.532,3.532,0,1,1,13.944,7.8,3.543,3.543,0,0,1,10.4,11.333Zm0-5.122A1.589,1.589,0,1,0,12,7.8,1.595,1.595,0,0,0,10.4,6.21Z" transform="translate(0 0)" fill="none"/>
    </clipPath>
  </defs>
  <g id="Group_80" data-name="Group 80" transform="translate(2.601 5.2)">
    <path id="Show-2" data-name="Show" d="M10.4,15.6a10.759,10.759,0,0,1-7.673-3.721A17.923,17.923,0,0,1,.784,9.394c-.229-.352-.4-.643-.5-.825-.051-.089-.09-.162-.12-.217l-.011-.02-.011-.02L.117,8.264l-.011-.02,0-.009.332-.166.112-.056L.1,8.234a.976.976,0,0,1,0-.869l0-.009.011-.02.035-.067c.03-.057.074-.138.131-.239.1-.177.267-.464.5-.825A17.859,17.859,0,0,1,2.726,3.722,10.755,10.755,0,0,1,10.4,0a10.755,10.755,0,0,1,7.673,3.722,17.678,17.678,0,0,1,1.942,2.484c.183.284.351.561.5.825.057.1.1.181.131.239l.035.067.011.02,0,.009a.976.976,0,0,1,0,.87l-.058-.029.057.03,0,.009-.01.02-.025.048-.011.02-.011.02c-.03.055-.07.129-.12.218-.154.271-.322.549-.5.825a17.748,17.748,0,0,1-1.942,2.485A10.759,10.759,0,0,1,10.4,15.6Zm0-13.657A8.6,8.6,0,0,0,4.149,5.05,15.947,15.947,0,0,0,2.422,7.26c-.115.177-.224.353-.333.541.1.173.213.355.333.539a15.893,15.893,0,0,0,1.727,2.21,8.591,8.591,0,0,0,6.25,3.108,8.591,8.591,0,0,0,6.25-3.108,15.743,15.743,0,0,0,1.727-2.21c.118-.181.23-.362.333-.539-.107-.183-.216-.36-.333-.541a15.806,15.806,0,0,0-1.727-2.21A8.6,8.6,0,0,0,10.4,1.942Zm0,9.39A3.532,3.532,0,1,1,13.944,7.8,3.543,3.543,0,0,1,10.4,11.333Zm0-5.122A1.589,1.589,0,1,0,12,7.8,1.595,1.595,0,0,0,10.4,6.21Z" transform="translate(0 0)" fill="none"/>
    <g id="Mask_Group_369" data-name="Mask Group 369" clip-path="url(#clip-path)">
      <g id="Color" transform="translate(-2.601 -5.2)">
        <rect id="Rectangle" width="26" height="26" fill="#3f434a"/>
      </g>
    </g>
  </g>
</svg>
